HIERARCHY
ROOT __0
{
	OFFSET 0.0 0.0 0.0
	CHANNELS 0
	JOINT hip
	{
		OFFSET 0.000000 -0.026249 1.054178
		CHANNELS 6 Xposition Yposition Zposition Xrotation Yrotation Zrotation
		JOINT spine
		{
			OFFSET 0.000000 0.011931 0.284082
			CHANNELS 3 Xrotation Yrotation Zrotation
			JOINT spine.001
			{
				OFFSET -0.000000 -0.031022 0.207850
				CHANNELS 3 Xrotation Yrotation Zrotation
				JOINT head
				{
					OFFSET 0.000000 0.045339 0.397661
					CHANNELS 3 Xrotation Yrotation Zrotation
					End Site
					{
						OFFSET 0.000000 0.000000 0.381644
					}
				}
				JOINT collar.L
				{
					OFFSET 0.000000 0.045339 0.397661
					CHANNELS 3 Xrotation Yrotation Zrotation
					JOINT shoulder.L
					{
						OFFSET -0.153096 0.000000 -0.089998
						CHANNELS 3 Xrotation Yrotation Zrotation
						JOINT UpperArm.L
						{
							OFFSET -0.183743 -0.000000 -0.064430
							CHANNELS 3 Xrotation Yrotation Zrotation
							JOINT LowerArm.L
							{
								OFFSET -0.309376 -0.063903 0.003301
								CHANNELS 3 Xrotation Yrotation Zrotation
								JOINT hand.L
								{
									OFFSET -0.294414 0.041948 -0.010574
									CHANNELS 3 Xrotation Yrotation Zrotation
									End Site
									{
										OFFSET -0.146658 -0.004199 -0.006440
									}
								}
							}
						}
					}
				}
				JOINT collar.R
				{
					OFFSET 0.000000 0.045339 0.397661
					CHANNELS 3 Xrotation Yrotation Zrotation
					JOINT shoulder.R
					{
						OFFSET 0.153096 0.000000 -0.089998
						CHANNELS 3 Xrotation Yrotation Zrotation
						JOINT UpperArm.R
						{
							OFFSET 0.183743 -0.000000 -0.064430
							CHANNELS 3 Xrotation Yrotation Zrotation
							JOINT LowerArm.R
							{
								OFFSET 0.309376 -0.063903 0.003301
								CHANNELS 3 Xrotation Yrotation Zrotation
								JOINT hand.R
								{
									OFFSET 0.294414 0.041948 -0.010574
									CHANNELS 3 Xrotation Yrotation Zrotation
									End Site
									{
										OFFSET 0.146658 -0.004199 -0.006440
									}
								}
							}
						}
					}
				}
			}
		}
		JOINT UpperLeg.L
		{
			OFFSET -0.157494 -0.002928 -0.153431
			CHANNELS 3 Xrotation Yrotation Zrotation
			JOINT LowerLeg.L
			{
				OFFSET -0.028635 0.043215 -0.458015
				CHANNELS 3 Xrotation Yrotation Zrotation
				JOINT Foot.L
				{
					OFFSET -0.021900 -0.057668 -0.375839
					CHANNELS 3 Xrotation Yrotation Zrotation
					End Site
					{
						OFFSET -0.008760 0.234651 -0.027840
					}
				}
			}
		}
		JOINT UpperLeg.R
		{
			OFFSET 0.157494 -0.002928 -0.153431
			CHANNELS 3 Xrotation Yrotation Zrotation
			JOINT LowerLeg.R
			{
				OFFSET 0.028635 0.043215 -0.458015
				CHANNELS 3 Xrotation Yrotation Zrotation
				JOINT Foot.R
				{
					OFFSET 0.021900 -0.057668 -0.375839
					CHANNELS 3 Xrotation Yrotation Zrotation
					End Site
					{
						OFFSET 0.008760 0.234651 -0.027840
					}
				}
			}
		}
	}
	JOINT IKPole.L
	{
		OFFSET -0.186129 0.631578 0.633967
		CHANNELS 6 Xposition Yposition Zposition Xrotation Yrotation Zrotation
		End Site
		{
			OFFSET 0.000000 0.335215 0.000000
		}
	}
	JOINT IKTagetLeg.L
	{
		OFFSET -0.205840 -0.043631 0.066894
		CHANNELS 6 Xposition Yposition Zposition Xrotation Yrotation Zrotation
		End Site
		{
			OFFSET 0.000000 -0.219538 0.026249
		}
	}
	JOINT IKPole.R
	{
		OFFSET 0.186129 0.631578 0.633967
		CHANNELS 6 Xposition Yposition Zposition Xrotation Yrotation Zrotation
		End Site
		{
			OFFSET 0.000000 0.335215 0.000000
		}
	}
	JOINT IKTagetLeg.R
	{
		OFFSET 0.205840 -0.043631 0.066894
		CHANNELS 6 Xposition Yposition Zposition Xrotation Yrotation Zrotation
		End Site
		{
			OFFSET 0.000000 -0.219538 0.026249
		}
	}
	JOINT IKArmPole.L
	{
		OFFSET -0.484735 -0.309871 1.764236
		CHANNELS 6 Xposition Yposition Zposition Xrotation Yrotation Zrotation
		End Site
		{
			OFFSET 0.000000 -0.320193 0.000000
		}
	}
	JOINT IKArmTarget.L
	{
		OFFSET -0.940628 -0.021955 1.782071
		CHANNELS 6 Xposition Yposition Zposition Xrotation Yrotation Zrotation
		End Site
		{
			OFFSET -0.302490 0.000000 0.000000
		}
	}
	JOINT IKArmPole.R
	{
		OFFSET 0.484735 -0.309871 1.764236
		CHANNELS 6 Xposition Yposition Zposition Xrotation Yrotation Zrotation
		End Site
		{
			OFFSET 0.000000 -0.320193 0.000000
		}
	}
	JOINT IKArmTarget.R
	{
		OFFSET 0.940628 -0.021955 1.782071
		CHANNELS 6 Xposition Yposition Zposition Xrotation Yrotation Zrotation
		End Site
		{
			OFFSET 0.302490 0.000000 0.000000
		}
	}
}
MOTION
Frames: 5
Frame Time: 0.041667
-0.000000 -0.031895 1.083409 -4.555039 -0.000000 0.000000 -2.591303 -0.174334 0.634414 -14.034630 0.064477 0.031824 5.810907 0.000002 -0.000000 0.000001 -0.000000 0.000000 -0.317971 37.745493 -60.352357 63.527132 -17.289898 4.383220 -16.534594 -10.442923 -66.318678 45.056033 26.375505 -13.486717 -15.168537 5.423087 -24.169640 2.344002 -0.463303 -17.269841 -21.955384 18.151190 39.498752 -1.823492 6.005370 48.185844 44.415262 16.979586 34.270672 -54.018754 3.040200 10.343411 -18.597943 -0.495781 1.061769 -55.052114 9.302392 -8.500877 66.111231 -2.687927 -4.571019 -45.168741 1.727342 -2.185963 1.726202 -4.279713 8.328734 -0.221082 0.631633 0.633967 -0.000000 0.000000 -0.000000 -0.221484 -0.796073 0.634580 -132.347906 1.040411 0.858779 0.238016 0.631578 0.641791 -0.000000 0.000000 -0.000000 0.205206 0.424047 0.371968 17.913317 -0.768066 0.748282 -0.595065 -0.089027 1.777218 -0.000000 0.000000 -0.000000 -0.188261 0.711908 1.639004 -49.535226 -57.595037 -153.868125 0.732746 -0.918483 2.147070 -0.000000 0.000000 -0.000000 0.658399 -0.124944 1.579305 191.236076 106.875050 -139.165159 
-0.000000 -0.027458 1.071120 -4.555039 -0.000000 0.000000 -2.591303 -0.174334 0.634414 -14.034630 0.064477 0.031824 5.810907 0.000002 -0.000000 0.000001 -0.000000 0.000000 -3.909383 42.729862 -52.832193 83.105644 -24.421746 7.716700 -15.687418 -9.879629 -58.944403 31.453981 15.452869 -7.239369 -15.168537 5.423087 -24.169640 1.460501 -0.155766 -9.855574 -19.375517 18.668335 31.874604 -2.242148 6.447780 52.747362 52.195213 16.871817 35.017086 -58.770349 1.475708 10.098651 -11.577045 -0.268261 0.680371 -64.997193 8.690670 -7.120539 56.248688 -2.094093 -6.024775 -31.217619 1.015065 -1.666858 -2.141543 -3.518575 8.202180 -0.216051 0.631593 0.633967 -0.000000 0.000000 -0.000000 -0.210211 -0.812668 0.638976 -139.966395 0.271498 0.256227 0.244321 0.631578 0.642488 -0.000000 0.000000 -0.000000 0.205662 0.417571 0.293834 18.187301 -0.214036 0.209522 -0.536517 -0.196513 1.768087 -0.000000 0.000000 -0.000000 -0.211983 0.744968 1.660128 -45.133279 -55.266295 -149.411344 0.798627 -0.919715 2.149266 -0.000000 0.000000 -0.000000 0.658783 -0.092378 1.559472 210.045488 103.421973 -152.960652 
-0.000000 -0.026249 1.054178 -4.555039 -0.000001 0.000000 -2.591303 -0.174334 0.634414 -14.034630 0.064477 0.031824 5.810907 0.000002 -0.000000 -0.000000 -0.000000 -0.000000 -9.744306 44.860819 -43.152025 100.677562 -30.500859 12.973365 -15.156210 -9.436597 -53.932458 19.696896 4.673801 -3.089347 -15.168535 5.423088 -24.169642 0.000000 0.000000 0.000004 -13.839797 20.181505 21.843594 -2.731732 6.885748 57.670251 56.202700 14.179688 32.824171 -60.356770 1.077234 9.706045 -11.106208 -0.254702 0.653838 -66.694489 8.240054 -6.756847 31.890266 1.026313 -8.538621 13.821015 -0.133747 0.861947 -22.571806 -2.529879 7.720645 -0.208700 0.631578 0.633967 -0.000000 0.000000 -0.000000 -0.205840 -0.818847 0.640059 -142.751855 0.000000 -0.000000 0.253668 0.631578 0.643182 -0.000000 0.000000 -0.000000 0.205840 0.405829 0.186475 18.291788 -0.000000 -0.000000 -0.484735 -0.309871 1.764236 -0.000000 0.000000 -0.000000 -0.245091 0.757244 1.668191 -42.891232 -52.593710 -145.366629 0.824177 -0.919891 2.149752 -0.000000 0.000000 -0.000000 0.658837 -0.046928 1.531793 219.302703 102.484475 -160.315714 
0.000000 -0.030565 0.962051 -4.555039 -0.000001 0.000000 -2.591303 -0.174334 0.634414 -14.034630 0.064477 0.031824 5.810907 0.000002 -0.000000 -0.000000 -0.000000 -0.000000 -14.198731 37.905245 -32.427703 99.807061 -43.046895 44.389475 -16.944461 -10.663221 -69.688789 11.557781 -5.973988 -6.332906 -15.168535 5.423088 -24.169642 -2.267144 -1.961961 12.522351 -11.495436 24.836496 31.154135 -1.662623 5.814949 46.320413 59.217002 4.646481 32.007813 -35.752673 5.316440 7.714434 -56.702946 -2.396912 2.474992 -26.101525 8.087987 -10.440058 38.477328 -1.413551 -7.845529 -17.803858 0.467720 -1.020059 -5.229168 -2.733583 8.828618 -0.199752 0.631578 0.633967 -0.000000 0.000000 -0.000000 -0.205839 -0.675363 0.538593 -123.058234 -0.000013 0.000009 0.265390 0.631949 0.638748 -0.000000 0.000000 -0.000000 0.205840 0.289610 0.073980 10.773874 0.000000 0.000002 -0.443786 -0.424724 1.780902 -0.000000 0.000000 -0.000000 -0.348460 0.584433 1.420398 -63.422309 -51.512908 -148.639806 0.822778 -0.857149 2.144444 -0.000000 0.000000 -0.000000 0.625949 0.065714 1.331032 219.302703 102.484475 -160.315714 
0.000000 -0.037148 0.879795 -4.555039 -0.000001 0.000000 -2.591303 -0.174334 0.634414 -14.034630 0.064477 0.031824 5.810907 0.000002 -0.000000 -0.000000 -0.000000 -0.000000 -12.741396 22.110832 -22.398606 67.220850 -59.766211 52.095704 -16.151598 -10.207657 -63.062611 2.297046 -14.683877 -25.736706 -15.168535 5.423088 -24.169642 -4.183184 -6.620214 26.711857 -6.823411 27.657557 45.449448 -0.300378 3.299112 24.833456 65.968952 -0.724327 31.318504 6.543244 6.295841 1.330792 -95.971589 -4.830854 2.387004 11.235607 2.714941 -11.258526 38.177551 -4.222999 -5.991573 -54.467214 2.262792 -2.429598 16.537298 -1.677905 10.276504 -0.195157 0.631578 0.633967 -0.000000 0.000000 -0.000000 -0.205840 -0.364726 0.358503 -82.599008 -0.000000 -0.000000 0.271566 0.632319 0.633967 -0.000000 0.000000 -0.000000 0.205840 0.046165 0.039340 -4.188125 0.000000 0.000000 -0.413176 -0.536069 1.824683 -0.000000 0.000000 -0.000000 -0.459994 0.288591 1.172291 -84.987252 -52.593710 -145.366629 0.819205 -0.695341 2.127672 -0.000000 0.000000 -0.000000 0.555743 0.214624 1.146448 219.302703 102.484475 -160.315714 
